<?xml version="1.0" encoding="UTF-8"?>
<svg width="24px" height="24px" viewBox="0 0 24 24" version="1.1" xmlns="http://www.w3.org/2000/svg" xmlns:xlink="http://www.w3.org/1999/xlink">
    <!-- Generator: Sketch 52.5 (67469) - http://www.bohemiancoding.com/sketch -->
    <title>github</title>
    <desc>Created with Sketch.</desc>
    <g id="github" stroke="none" stroke-width="1" fill="none" fill-rule="evenodd">
        <path d="M12.2664185,3.00009251 C7.72709435,2.97990662 3.84775978,6.26524329 3.12012922,10.7459157 C2.39249866,15.2265881 5.03286623,19.5706798 9.3453117,20.9879608 C9.80653909,21.064832 9.96028156,20.7573471 9.96028156,20.5267334 L9.96028156,18.9893087 C7.4235309,19.5274074 6.88543228,17.759369 6.88543228,17.759369 C6.42420489,16.6831718 5.80923504,16.3756869 5.80923504,16.3756869 C5.04052272,15.8375882 5.88610627,15.8375882 5.88610627,15.8375882 C6.80856105,15.8375882 7.34665967,16.760043 7.34665967,16.760043 C8.11537199,18.1437252 9.49905417,17.759369 10.0371528,17.5287553 C10.0371528,16.9137855 10.3446377,16.5294293 10.5752514,16.2988156 C8.49972815,16.0682019 6.34733366,15.2994896 6.34733366,11.6865417 C6.34733366,10.7640869 6.73168982,9.91850338 7.34665967,9.30353353 C7.19291721,8.9960486 6.88543228,8.07359382 7.34665967,6.84365411 C7.34665967,6.84365411 8.11537199,6.61304041 9.96028156,7.76610889 C11.4706199,7.35797559 13.0622172,7.35797559 14.5725555,7.76610889 C16.3405938,6.61304041 17.1093061,6.84365411 17.1093061,6.84365411 C17.5705335,8.07359382 17.2630486,8.9960486 17.1093061,9.30353353 C17.8011472,9.91850338 18.1086321,10.7640869 18.1086321,11.7634129 C18.1086321,15.2994896 15.9562376,16.0682019 13.8807144,16.2988156 C14.2650705,16.6063006 14.5725555,17.0675279 14.5725555,17.9899827 L14.5725555,20.5267334 C14.5725555,20.7573471 14.6494267,21.064832 15.1875253,20.9879608 C19.4999708,19.5706798 22.1403384,15.2265881 21.4127078,10.7459157 C20.6850772,6.26524329 16.8057427,2.97990662 12.2664185,3.00009251" id="Path" fill="#000000"></path>
    </g>
</svg>