<?xml version="1.0" encoding="UTF-8"?>
<svg width="24px" height="24px" viewBox="0 0 24 24" version="1.1" xmlns="http://www.w3.org/2000/svg" xmlns:xlink="http://www.w3.org/1999/xlink">
    <!-- Generator: Sketch 52.5 (67469) - http://www.bohemiancoding.com/sketch -->
    <title>logo</title>
    <desc>Created with Sketch.</desc>
    <g id="logo" stroke="none" stroke-width="1" fill="none" fill-rule="evenodd">
        <path d="M12.066212,4.20667632 C10.0132248,4.20667632 8.36576595,5.87948068 8.36576595,7.90712234 C8.36576595,9.96010952 10.0385703,11.6075684 12.066212,11.6075684 C14.1191991,11.6075684 15.766658,9.934764 15.766658,7.90712234 C15.766658,5.87948068 14.1191991,4.20667632 12.066212,4.20667632 Z M12.3450127,8.87025213 L11.5086105,9.70665431 L10.6722083,8.87025213 L9.86115167,8.05919547 L10.6975539,7.22279328 L11.5086105,8.03384995 L13.4348701,6.10759037 L14.2712723,6.94399255 L12.3450127,8.87025213 Z M19.467104,6.86795599 C19.1376123,6.56380974 19.0108846,6.08224485 19.1883033,5.67671652 L19.3403764,5.29653371 C19.5938316,4.71358673 19.2643399,4.05460319 18.6560474,3.87718455 L18.250519,3.77580246 C17.8196452,3.64907486 17.5154989,3.26889205 17.4901534,2.81267268 L17.4901534,2.38179882 C17.4648079,1.74816081 16.8818609,1.29194143 16.2735684,1.39332352 L15.8680401,1.46936008 C15.4118207,1.54539664 14.9809469,1.34263247 14.7781827,0.937104143 L14.5754185,0.582266852 C14.2712723,0.0246653965 13.5615977,-0.127407728 13.0546873,0.227429562 L12.7251955,0.455539249 C12.3703582,0.708994456 11.8634478,0.708994456 11.5086105,0.455539249 L11.1791187,0.202084042 C10.6722083,-0.178098769 9.93718823,-0.000680124227 9.63304198,0.556921332 L9.43027782,0.911758622 C9.20216813,1.31728695 8.77129428,1.52005112 8.3150749,1.44401456 L7.90954657,1.36797799 C7.27590855,1.26659591 6.7183071,1.72281529 6.66761606,2.3564533 L6.64227054,2.76198163 C6.61692501,3.21820101 6.31277877,3.59838382 5.88190491,3.72511142 L5.47637658,3.85183903 C4.86808408,4.02925767 4.53859232,4.68824121 4.79204752,5.27118819 L4.94412065,5.651371 C5.12153929,6.05689933 4.99481169,6.53846422 4.66531992,6.84261047 L4.36117367,7.1214112 C3.87960878,7.52693953 3.87960878,8.28730515 4.36117367,8.69283348 L4.66531992,8.97163421 C4.99481169,9.27578046 5.12153929,9.75734536 4.94412065,10.1628737 L4.79204752,10.5430565 C4.53859232,11.1260035 4.86808408,11.784987 5.47637658,11.9624057 L5.88190491,12.0637877 C6.31277877,12.1905153 6.61692501,12.5706982 6.64227054,13.0269175 L6.66761606,13.4324459 C6.69296158,14.0660839 7.27590855,14.5223033 7.88420105,14.4209212 L8.28972938,14.3448846 C8.74594876,14.268848 9.17682261,14.4716122 9.37958677,14.8771405 L9.58235094,15.2319778 C9.88649719,15.7895793 10.5961718,15.9416524 11.1030822,15.5868151 L11.432574,15.3587054 C11.7874112,15.1052502 12.2943217,15.1052502 12.6491589,15.3587054 L12.9786507,15.6121606 C13.4855611,15.9923435 14.2205812,15.8149248 14.5247275,15.2573234 L14.7274916,14.9024861 C14.9556013,14.4969577 15.3864752,14.2941936 15.8426946,14.3702301 L16.2482229,14.4462667 C16.8818609,14.5476488 17.4394624,14.0914294 17.4901534,13.4577914 L17.5154989,13.052263 C17.5408444,12.5960437 17.8449907,12.2158609 18.2758645,12.0891333 L18.6813929,11.9877512 C19.2896854,11.8103325 19.6191771,11.151349 19.3657219,10.568402 L19.2136488,10.1882192 C19.0362302,9.78269088 19.1629578,9.30112598 19.4924495,8.99697973 L19.7965958,8.71817901 C20.2781607,8.31265067 20.2781607,7.55228505 19.7965958,7.14675672 L19.467104,6.86795599 Z M12.066212,13.052263 C9.22751365,13.052263 6.94641678,10.7458207 6.94641678,7.93246786 C6.94641678,5.09376954 9.25285917,2.81267268 12.066212,2.81267268 C14.9049103,2.81267268 17.1860072,5.11911506 17.1860072,7.93246786 C17.1860072,10.7458207 14.9049103,13.052263 12.066212,13.052263 Z M4.10771846,21.9738863 L6.59157949,15.7642338 C6.92107126,15.9163069 7.30125407,16.017689 7.68143689,16.017689 C7.83351001,16.017689 7.98558313,15.9923435 8.13765626,15.9669979 L8.1883473,15.9669979 L8.21369282,16.017689 C8.64456667,16.8287456 9.5316599,17.3356561 10.4947897,17.3356561 C10.7482449,17.3356561 11.0270456,17.284965 11.2551553,17.2089284 L8.64456667,23.7734183 C8.56853011,23.9761825 8.28972938,24.001528 8.1883473,23.7987638 L6.94641678,21.6190491 C6.89572574,21.5430125 6.81968918,21.517667 6.74365262,21.5430125 L4.41186471,22.2780326 C4.20910055,22.3540692 4.0316819,22.151305 4.10771846,21.9738863 Z M15.4878573,23.8494549 L12.8519231,17.2596195 C13.1053783,17.3356561 13.3588335,17.3863471 13.6122887,17.3863471 C14.5754185,17.3863471 15.4371662,16.8794367 15.8933856,16.0430345 L15.9187311,15.9923435 L15.9694222,15.9923435 C16.1214953,16.017689 16.2735684,16.0430345 16.4256415,16.0430345 C16.8311699,16.0430345 17.1860072,15.9416524 17.5408444,15.7895793 L20.0247055,22.0499229 C20.100742,22.2526871 19.9233234,22.4554512 19.7205592,22.3794147 L17.3887713,21.6443946 C17.3127348,21.6190491 17.2366982,21.6443946 17.1860072,21.7204311 L15.9440766,23.9001459 C15.8426946,24.052219 15.5638938,24.0268735 15.4878573,23.8494549 Z" id="Shape" fill="#FF534F" fill-rule="nonzero"></path>
    </g>
</svg>